<svg width="77" height="77" viewBox="0 0 77 77" fill="none" xmlns="http://www.w3.org/2000/svg">
<path d="M25.9844 38.5265L9.35279 37.0218L6.97684 28.7455L13.3127 21.9741L20.4405 10.6883L38.6562 8.43118L51.3279 10.6883L64.7916 21.9741L70.3355 37.0218L66.3756 38.5265H52.9118L45.784 34.7646L41.8241 30.2503H33.9043L25.9844 38.5265Z" fill="#E51313" stroke="#E51313" stroke-width="1.58397"/>
<path d="M51.8224 39.2642L68.4267 41.0454L70.6646 49.36L64.217 56.0251L56.9025 67.1908L38.6518 69.1447L26.0194 66.6771L12.7453 55.1689L7.45242 40.0311L11.4368 38.5924L24.8987 38.8164L31.963 42.6963L35.8472 47.2758L43.766 47.4076L51.8224 39.2642Z" fill="#E7E7E7" stroke="#E51313" stroke-width="1.58397"/>
<path d="M38.6562 70.2059C56.1522 70.2059 70.3355 56.0226 70.3355 38.5265C70.3355 21.0305 56.1522 6.84723 38.6562 6.84723C21.1601 6.84723 6.97684 21.0305 6.97684 38.5265C6.97684 56.0226 21.1601 70.2059 38.6562 70.2059Z" stroke="black" stroke-width="6.33586" stroke-linejoin="round"/>
<path d="M38.6562 48.0303C43.905 48.0303 48.16 43.7753 48.16 38.5265C48.16 33.2777 43.905 29.0227 38.6562 29.0227C33.4074 29.0227 29.1524 33.2777 29.1524 38.5265C29.1524 43.7753 33.4074 48.0303 38.6562 48.0303Z" fill="white" stroke="black" stroke-width="6.33586" stroke-linejoin="round"/>
<path d="M48.16 38.5266H70.3355" stroke="black" stroke-width="6.33586" stroke-linecap="round" stroke-linejoin="round"/>
<path d="M6.97684 38.5266H29.1524" stroke="black" stroke-width="6.33586" stroke-linecap="round" stroke-linejoin="round"/>
<path d="M38.6562 41.6945C40.4058 41.6945 41.8241 40.2761 41.8241 38.5265C41.8241 36.7769 40.4058 35.3586 38.6562 35.3586C36.9066 35.3586 35.4883 36.7769 35.4883 38.5265C35.4883 40.2761 36.9066 41.6945 38.6562 41.6945Z" fill="white"/>
</svg>
