<svg width="27" height="28" viewBox="0 0 27 28" fill="none" xmlns="http://www.w3.org/2000/svg">
<path d="M15.6291 12.7656V18.2545M4.65136 7.27673H22.2158L20.4813 22.8871C20.4219 23.4243 20.1663 23.9208 19.7636 24.2813C19.361 24.6419 18.8394 24.8412 18.2989 24.8412H8.56823C8.02773 24.8412 7.5062 24.6419 7.10352 24.2813C6.70084 23.9208 6.44531 23.4243 6.38585 22.8871L4.65136 7.27673ZM8.32343 4.14477C8.501 3.7682 8.78198 3.44987 9.13359 3.22693C9.48521 3.00399 9.89297 2.88561 10.3093 2.88562H16.5579C16.9744 2.88541 17.3824 3.00368 17.7342 3.22664C18.086 3.44959 18.3672 3.76803 18.5448 4.14477L20.0202 7.27673H6.84692L8.32343 4.14477V4.14477ZM2.45581 7.27673H24.4114H2.45581ZM11.238 12.7656V18.2545V12.7656Z" stroke="#FAFAFA" stroke-width="2.19555" stroke-linecap="round" stroke-linejoin="round"/>
</svg>
